<?xml version="1.0" standalone="no"?>
<!DOCTYPE svg PUBLIC "-//W3C//DTD SVG 20010904//EN"
 "http://www.w3.org/TR/2001/REC-SVG-20010904/DTD/svg10.dtd">
<svg version="1.0" xmlns="http://www.w3.org/2000/svg"
 width="1161.143453pt" height="774.420462pt" viewBox="0 0 1161.143453 774.420462"
 preserveAspectRatio="xMidYMid meet">
<metadata>
Created by potrace 1.12, written by Peter Selinger 2001-2015
</metadata>
<g transform="translate(-418.936276,961.776113) scale(0.100000,-0.100000)"
fill="#000000" stroke="none">
<path d="M9377 9600 c-65 -36 -91 -101 -67 -164 11 -31 11 -31 -65 -7 -195 61
-539 50 -694 -22 -58 -27 -83 -68 -79 -132 l3 -50 -38 -9 c-34 -9 -45 -5 -126
37 -89 47 -216 87 -276 87 -17 0 -55 -7 -83 -15 -42 -13 -59 -25 -83 -58 -26
-35 -30 -49 -27 -87 3 -25 8 -54 13 -64 7 -17 5 -18 -16 -13 -161 45 -355 46
-523 2 -111 -29 -130 -37 -168 -73 -39 -36 -45 -82 -19 -133 l22 -41 -22 -5
c-75 -20 -345 -170 -549 -305 -209 -139 -361 -207 -513 -228 -202 -29 -404
-233 -438 -441 -17 -103 8 -171 73 -205 28 -14 28 -15 13 -51 -37 -87 -58
-234 -58 -398 -1 -242 35 -409 121 -564 81 -144 159 -186 238 -126 23 17 35
22 40 14 4 -7 7 -91 8 -188 1 -175 1 -176 32 -241 76 -160 213 -240 386 -226
l79 7 -14 -28 c-33 -63 -96 -265 -115 -368 -41 -217 -37 -366 10 -444 30 -48
93 -74 149 -62 23 5 55 19 70 30 16 12 32 21 37 21 5 0 12 -57 15 -127 7 -137
29 -248 72 -353 87 -210 158 -290 260 -290 38 0 95 24 95 40 0 21 18 8 44 -31
14 -23 25 -43 24 -44 -2 -2 -41 -15 -87 -29 -321 -101 -619 -349 -760 -632
-72 -145 -150 -401 -151 -495 0 -19 -5 -40 -12 -47 -9 -9 -241 -12 -984 -12
l-971 0 -27 -26 c-35 -35 -36 -92 -2 -131 l24 -28 1159 -5 1158 -5 61 -33 c83
-45 106 -71 152 -178 105 -239 180 -362 275 -451 121 -113 305 -180 465 -170
81 5 84 4 132 -28 141 -95 359 -127 541 -80 135 35 275 127 334 219 l34 53 62
6 c45 4 86 17 147 47 190 95 312 292 329 535 l6 85 898 0 899 0 0 -72 c1 -288
206 -551 461 -592 71 -11 73 -12 110 -62 103 -140 266 -222 470 -239 141 -11
304 29 407 100 48 32 50 33 133 28 110 -6 210 15 316 67 159 78 275 222 397
489 75 165 107 205 200 248 l61 28 1152 5 1151 5 26 24 c33 31 36 96 7 132
l-19 24 -993 5 -994 5 -11 80 c-16 108 -27 153 -69 280 -73 224 -168 373 -340
535 -135 127 -327 239 -507 295 -49 15 -88 32 -88 39 0 6 7 19 14 29 13 17 15
17 47 -2 68 -42 156 -18 222 60 102 119 192 395 198 609 1 41 3 78 6 82 2 4
29 -6 59 -23 31 -16 67 -29 81 -29 46 0 93 31 121 79 26 45 27 50 26 206 0
127 -5 182 -22 264 -19 84 -76 270 -106 341 -5 13 9 15 97 15 98 0 107 2 171
34 83 43 154 117 186 197 22 53 24 76 26 232 2 96 5 180 8 188 4 11 13 9 42
-11 81 -55 162 -18 235 107 83 141 118 280 126 504 6 174 -7 295 -49 442 -12
40 -19 73 -17 75 2 1 18 9 34 17 39 20 65 73 65 132 0 236 -206 475 -439 508
-154 22 -280 79 -524 238 -223 146 -292 186 -429 250 -60 28 -108 55 -108 59
0 4 7 17 15 27 8 11 15 40 15 64 0 64 -41 102 -146 135 -162 51 -347 59 -508
22 -37 -9 -70 -14 -73 -11 -3 2 0 13 6 24 17 32 13 94 -9 129 -43 71 -133 96
-251 69 -75 -16 -195 -68 -248 -105 -23 -17 -32 -18 -68 -8 l-42 11 6 46 c11
93 -33 130 -202 171 -153 38 -418 30 -577 -17 -14 -4 -16 0 -11 31 8 53 -20
107 -70 135 -33 19 -57 24 -117 24 -165 0 -326 -71 -468 -207 l-63 -61 -30 37
c-37 45 -125 113 -200 155 -93 53 -164 73 -274 78 -88 4 -105 2 -138 -16z
m278 -209 c101 -45 203 -130 280 -236 37 -51 77 -95 86 -95 4 0 37 38 73 84
106 136 254 246 360 268 31 7 58 9 61 6 3 -3 -6 -25 -20 -49 -34 -61 -34 -127
1 -168 34 -41 63 -40 185 3 132 47 242 68 368 70 113 1 221 -10 221 -24 0 -4
-14 -13 -30 -20 -37 -15 -70 -55 -70 -84 0 -42 35 -66 98 -66 64 0 190 -29
259 -60 73 -32 109 -27 183 26 85 62 220 115 220 87 0 -5 -16 -35 -36 -68 -46
-76 -51 -140 -16 -178 37 -40 76 -41 183 -7 166 52 227 63 354 64 66 0 138 -3
160 -8 l39 -8 -53 -18 c-29 -10 -62 -27 -74 -38 -24 -25 -27 -76 -5 -98 8 -9
69 -31 135 -49 219 -62 364 -136 683 -345 244 -160 356 -212 519 -240 119 -21
230 -93 281 -183 17 -29 30 -61 30 -71 0 -17 -2 -18 -17 -4 -46 40 -130 23
-153 -31 -12 -30 -10 -37 33 -124 52 -104 89 -223 107 -347 18 -124 8 -362
-19 -465 -26 -98 -66 -181 -93 -196 -19 -10 -20 -9 -14 22 20 96 19 105 -11
138 -15 17 -43 34 -61 37 -28 6 -37 2 -67 -31 -45 -47 -71 -98 -100 -194 -30
-101 -39 -178 -39 -342 -1 -133 -1 -136 -30 -178 -62 -89 -162 -107 -301 -53
-119 47 -200 98 -292 185 -202 193 -343 494 -387 827 -9 69 -21 160 -27 202
-21 159 -103 375 -192 508 -50 74 -178 204 -223 225 -64 30 -121 17 -143 -32
-24 -53 -15 -72 75 -157 192 -180 276 -372 314 -716 50 -454 221 -815 488
-1032 43 -35 78 -66 80 -69 2 -4 31 -52 66 -106 71 -112 128 -225 162 -325 40
-119 73 -310 65 -386 0 -7 -28 9 -62 36 -94 76 -168 88 -224 36 -28 -26 -29
-36 -15 -194 11 -125 1 -240 -36 -384 -26 -102 -85 -246 -102 -246 -4 0 -18
24 -31 54 -27 65 -57 95 -103 102 -51 9 -91 -29 -107 -100 -12 -52 -74 -192
-102 -228 -12 -16 -38 -18 -209 -22 -136 -2 -218 -9 -270 -20 -385 -88 -695
-297 -908 -614 -125 -186 -200 -346 -246 -523 -12 -49 -25 -91 -28 -94 -4 -4
-505 -6 -1649 -5 l-196 0 -7 39 c-20 126 -131 389 -223 531 -166 254 -340 415
-582 539 -120 61 -207 92 -341 122 -90 20 -133 24 -304 24 l-199 1 -24 34
c-35 49 -90 168 -98 211 -11 61 -39 97 -81 105 -60 11 -97 -14 -134 -90 -18
-36 -35 -66 -37 -66 -11 0 -78 167 -100 250 -29 113 -42 361 -25 474 10 60 9
71 -6 92 -52 70 -139 55 -250 -42 -29 -25 -55 -44 -58 -42 -8 9 16 192 37 282
35 145 92 278 166 392 37 58 74 116 80 128 7 13 36 45 65 71 120 109 222 213
251 255 153 221 240 477 282 835 20 166 37 247 71 335 57 149 137 261 258 366
65 55 71 64 74 102 3 34 -2 47 -22 66 -37 38 -68 41 -122 14 -131 -65 -290
-273 -374 -488 -34 -87 -58 -204 -75 -360 -33 -320 -124 -577 -272 -774 -118
-156 -287 -278 -461 -332 -137 -44 -207 -27 -272 63 -24 35 -25 40 -26 212 -2
202 -21 310 -77 420 -54 108 -123 135 -180 70 -28 -30 -29 -34 -22 -100 8 -81
-3 -89 -39 -26 -90 156 -123 509 -67 733 24 99 73 223 106 272 31 46 32 92 3
120 -33 30 -69 36 -113 18 -21 -9 -40 -14 -42 -12 -9 9 42 92 85 138 66 71
111 93 245 123 185 42 297 93 507 235 303 203 497 300 699 351 126 31 141 41
141 95 0 42 -17 61 -75 83 l-50 19 30 8 c17 5 89 9 160 9 132 0 193 -10 345
-57 108 -33 130 -37 161 -26 65 23 76 106 27 201 -18 34 -34 65 -36 70 -16 34
143 -32 233 -97 55 -40 105 -47 153 -22 50 26 216 66 273 66 61 0 94 20 105
66 8 32 -20 73 -66 95 -49 23 -25 31 110 37 146 6 285 -15 425 -65 166 -59
219 -54 251 22 15 38 11 77 -18 143 -10 24 -18 48 -18 52 0 10 85 -13 145 -39z
m-1833 -5296 c395 -69 741 -344 929 -739 77 -163 135 -358 145 -491 17 -214
-71 -404 -218 -473 -77 -36 -75 -38 -80 106 -3 110 -7 134 -28 177 -21 42 -31
52 -62 59 -29 7 -42 6 -63 -8 -40 -26 -47 -58 -34 -149 13 -86 7 -227 -11
-291 -29 -97 -176 -196 -322 -215 -115 -16 -204 -1 -305 49 l-83 41 0 69 c0
92 -28 286 -46 321 -30 58 -97 67 -138 18 -30 -36 -31 -36 -11 -215 9 -76 13
-144 10 -152 -4 -12 -18 -13 -65 -8 -153 17 -273 92 -355 220 -40 63 -109 199
-136 269 -41 107 -72 158 -133 214 -91 84 -190 124 -348 139 -78 7 -75 1 -53
118 30 155 94 319 176 446 55 87 195 227 288 289 138 93 338 172 521 206 102
18 318 18 422 0z m4769 -1 c145 -25 337 -93 442 -156 190 -116 327 -259 416
-436 56 -111 131 -361 131 -436 0 -22 -5 -24 -72 -30 -190 -18 -333 -97 -415
-229 -21 -34 -58 -108 -82 -165 -92 -218 -184 -338 -306 -397 -69 -34 -197
-64 -226 -53 -12 5 -13 22 -7 94 23 287 23 262 -2 289 -45 48 -127 22 -149
-48 -17 -52 -32 -155 -39 -267 l-7 -105 -75 -37 c-45 -22 -103 -42 -143 -48
-206 -32 -437 75 -482 223 -18 58 -21 242 -7 318 21 107 -67 171 -138 101 -36
-36 -53 -114 -54 -244 -1 -113 -2 -113 -83 -73 -57 29 -116 88 -156 156 -105
179 -68 486 99 822 78 157 144 249 263 368 184 184 389 298 631 349 113 24
333 26 461 4z"/>
<path d="M8612 6868 c-141 -56 -235 -210 -218 -356 14 -118 81 -212 185 -261
48 -22 69 -26 151 -26 88 1 101 4 184 40 96 43 118 64 154 152 16 38 22 72 22
131 0 68 -4 87 -30 140 -40 80 -98 137 -173 173 -53 25 -74 29 -142 28 -56 0
-96 -6 -133 -21z m62 -102 c44 -18 66 -52 66 -99 0 -54 -52 -107 -105 -107
-50 0 -105 53 -105 102 0 47 33 95 72 107 18 5 34 10 36 10 1 1 18 -5 36 -13z"/>
<path d="M11145 6878 c-49 -18 -133 -77 -165 -118 -53 -67 -74 -127 -75 -210
0 -145 43 -224 150 -275 95 -46 152 -58 239 -53 115 7 208 63 262 155 35 59
45 98 45 181 0 131 -74 244 -196 303 -52 25 -71 29 -145 28 -47 0 -98 -5 -115
-11z m86 -137 c65 -66 16 -181 -77 -181 -60 0 -103 45 -104 108 0 63 40 102
105 102 38 0 52 -5 76 -29z"/>
<path d="M9880 6154 c-82 -8 -213 -35 -244 -51 -44 -22 -94 -72 -119 -118 -17
-31 -22 -58 -22 -120 0 -69 4 -86 27 -125 47 -80 205 -218 307 -270 68 -34 71
-40 71 -159 l0 -84 -43 -41 c-50 -47 -190 -120 -263 -136 -27 -7 -92 -12 -144
-11 -216 0 -425 118 -504 284 -31 67 -49 82 -97 82 -29 0 -46 -7 -66 -28 -104
-104 118 -380 387 -480 154 -58 376 -63 523 -13 94 32 185 76 250 122 26 19
49 34 52 34 2 0 38 -22 80 -49 83 -54 198 -103 303 -127 99 -23 290 -15 398
18 169 51 342 182 424 323 47 79 49 145 7 181 -57 49 -114 26 -163 -66 -92
-175 -282 -281 -508 -282 -110 0 -179 17 -286 73 -101 52 -146 90 -154 131 -4
18 -4 70 0 115 6 79 8 82 36 94 109 45 303 213 346 299 64 130 5 302 -121 355
-88 36 -336 62 -477 49z"/>
</g>
</svg>
